999
From EasySTONE ver. 6.9e1
0
SECTION
2
ENTITIES
0
3DFACE
8
Lay1
10
707.106781
20
707.106781
30
200.0
11
265.165043
21
795.495129
31
200.0
12
530.330086
22
530.330086
32
200.0
13
530.330086
23
530.330086
33
200.0
70
8
62
4
0
3DFACE
8
Lay1
10
265.165043
20
795.495129
30
200.0
11
707.106781
21
707.106781
31
200.0
12
441.941738
22
972.271824
32
200.0
13
441.941738
23
972.271824
33
200.0
70
8
62
4
0
3DFACE
8
Lay1
10
530.330086
20
530.330086
30
200.0
11
88.388348
21
618.718434
31
200.0
12
353.553391
22
353.553391
32
200.0
13
353.553391
23
353.553391
33
200.0
70
8
62
4
0
3DFACE
8
Lay1
10
88.388348
20
618.718434
30
200.0
11
530.330086
21
530.330086
31
200.0
12
265.165043
22
795.495129
32
200.0
13
265.165043
23
795.495129
33
200.0
70
8
62
4
0
3DFACE
8
Lay1
10
441.941738
20
972.271824
30
200.0
11
0.0
21
1060.660172
31
200.0
12
265.165043
22
795.495129
32
200.0
13
265.165043
23
795.495129
33
200.0
70
8
62
4
0
3DFACE
8
Lay1
10
0.0
20
1060.660172
30
200.0
11
441.941738
21
972.271824
31
200.0
12
176.776695
22
1237.436867
32
200.0
13
176.776695
23
1237.436867
33
200.0
70
8
62
4
0
3DFACE
8
Lay1
10
265.165043
20
795.495129
30
200.0
11
-176.776695
21
883.883476
31
200.0
12
88.388348
22
618.718434
32
200.0
13
88.388348
23
618.718434
33
200.0
70
8
62
4
0
3DFACE
8
Lay1
10
-176.776695
20
883.883476
30
200.0
11
265.165043
21
795.495129
31
200.0
12
0.0
22
1060.660172
32
200.0
13
0.0
23
1060.660172
33
200.0
70
8
62
4
0
3DFACE
8
Lay1
10
353.553391
20
353.553391
30
200.0
11
-88.388348
21
441.941738
31
200.0
12
176.776695
22
176.776695
32
200.0
13
176.776695
23
176.776695
33
200.0
70
8
62
4
0
3DFACE
8
Lay1
10
-88.388348
20
441.941738
30
200.0
11
353.553391
21
353.553391
31
200.0
12
88.388348
22
618.718434
32
200.0
13
88.388348
23
618.718434
33
200.0
70
8
62
4
0
3DFACE
8
Lay1
10
176.776695
20
176.776695
30
200.0
11
-265.165043
21
265.165043
31
200.0
12
0.0
22
0.0
32
200.0
13
0.0
23
0.0
33
200.0
70
8
62
4
0
3DFACE
8
Lay1
10
-265.165043
20
265.165043
30
200.0
11
176.776695
21
176.776695
31
200.0
12
-88.388348
22
441.941738
32
200.0
13
-88.388348
23
441.941738
33
200.0
70
8
62
4
0
3DFACE
8
Lay1
10
88.388348
20
618.718434
30
200.0
11
-353.553391
21
707.106781
31
200.0
12
-88.388348
22
441.941738
32
200.0
13
-88.388348
23
441.941738
33
200.0
70
8
62
4
0
3DFACE
8
Lay1
10
-353.553391
20
707.106781
30
200.0
11
88.388348
21
618.718434
31
200.0
12
-176.776695
22
883.883476
32
200.0
13
-176.776695
23
883.883476
33
200.0
70
8
62
4
0
3DFACE
8
Lay1
10
-88.388348
20
441.941738
30
200.0
11
-530.330086
21
530.330086
31
200.0
12
-265.165043
22
265.165043
32
200.0
13
-265.165043
23
265.165043
33
200.0
70
8
62
4
0
3DFACE
8
Lay1
10
-530.330086
20
530.330086
30
200.0
11
-88.388348
21
441.941738
31
200.0
12
-353.553391
22
707.106781
32
200.0
13
-353.553391
23
707.106781
33
200.0
70
8
62
4
0
3DFACE
8
Lay1
10
176.776695
20
1237.436867
30
200.0
11
-265.165043
21
1325.825215
31
200.0
12
0.0
22
1060.660172
32
200.0
13
0.0
23
1060.660172
33
200.0
70
8
62
4
0
3DFACE
8
Lay1
10
-265.165043
20
1325.825215
30
200.0
11
176.776695
21
1237.436867
31
200.0
12
-88.388348
22
1502.60191
32
200.0
13
-88.388348
23
1502.60191
33
200.0
70
8
62
4
0
3DFACE
8
Lay1
10
0.0
20
1060.660172
30
200.0
11
-441.941738
21
1149.048519
31
200.0
12
-176.776695
22
883.883476
32
200.0
13
-176.776695
23
883.883476
33
200.0
70
8
62
4
0
3DFACE
8
Lay1
10
-441.941738
20
1149.048519
30
200.0
11
0.0
21
1060.660172
31
200.0
12
-265.165043
22
1325.825215
32
200.0
13
-265.165043
23
1325.825215
33
200.0
70
8
62
4
0
3DFACE
8
Lay1
10
-88.388348
20
1502.60191
30
200.0
11
-530.330086
21
1590.990258
31
200.0
12
-265.165043
22
1325.825215
32
200.0
13
-265.165043
23
1325.825215
33
200.0
70
8
62
4
0
3DFACE
8
Lay1
10
-530.330086
20
1590.990258
30
200.0
11
-88.388348
21
1502.60191
31
200.0
12
-353.553391
22
1767.766953
32
200.0
13
-353.553391
23
1767.766953
33
200.0
70
8
62
4
0
3DFACE
8
Lay1
10
-265.165043
20
1325.825215
30
200.0
11
-707.106781
21
1414.213562
31
200.0
12
-441.941738
22
1149.048519
32
200.0
13
-441.941738
23
1149.048519
33
200.0
70
8
62
4
0
3DFACE
8
Lay1
10
-707.106781
20
1414.213562
30
200.0
11
-265.165043
21
1325.825215
31
200.0
12
-530.330086
22
1590.990258
32
200.0
13
-530.330086
23
1590.990258
33
200.0
70
8
62
4
0
3DFACE
8
Lay1
10
-176.776695
20
883.883476
30
200.0
11
-618.718434
21
972.271824
31
200.0
12
-353.553391
22
707.106781
32
200.0
13
-353.553391
23
707.106781
33
200.0
70
8
62
4
0
3DFACE
8
Lay1
10
-618.718434
20
972.271824
30
200.0
11
-176.776695
21
883.883476
31
200.0
12
-441.941738
22
1149.048519
32
200.0
13
-441.941738
23
1149.048519
33
200.0
70
8
62
4
0
3DFACE
8
Lay1
10
-353.553391
20
707.106781
30
200.0
11
-795.495129
21
795.495129
31
200.0
12
-530.330086
22
530.330086
32
200.0
13
-530.330086
23
530.330086
33
200.0
70
8
62
4
0
3DFACE
8
Lay1
10
-795.495129
20
795.495129
30
200.0
11
-353.553391
21
707.106781
31
200.0
12
-618.718434
22
972.271824
32
200.0
13
-618.718434
23
972.271824
33
200.0
70
8
62
4
0
3DFACE
8
Lay1
10
-441.941738
20
1149.048519
30
200.0
11
-883.883476
21
1237.436867
31
200.0
12
-618.718434
22
972.271824
32
200.0
13
-618.718434
23
972.271824
33
200.0
70
8
62
4
0
3DFACE
8
Lay1
10
-883.883476
20
1237.436867
30
200.0
11
-441.941738
21
1149.048519
31
200.0
12
-707.106781
22
1414.213562
32
200.0
13
-707.106781
23
1414.213562
33
200.0
70
8
62
4
0
3DFACE
8
Lay1
10
-618.718434
20
972.271824
30
200.0
11
-1060.660172
21
1060.660172
31
200.0
12
-795.495129
22
795.495129
32
200.0
13
-795.495129
23
795.495129
33
200.0
70
8
62
4
0
3DFACE
8
Lay1
10
-1060.660172
20
1060.660172
30
200.0
11
-618.718434
21
972.271824
31
200.0
12
-883.883476
22
1237.436867
32
200.0
13
-883.883476
23
1237.436867
33
200.0
70
8
62
4
0
ENDSEC
0
EOF
