999
From EasySTONE ver. 6.9e1
0
SECTION
2
ENTITIES
0
POLYLINE
8
Lay1
62
1
66
1
70
1
10
0.0
20
0.0
30
0.0
39
0.0
0
VERTEX
8
Lay1
62
1
10
0.0
20
0.0
30
0.0
0
VERTEX
8
Lay1
62
1
10
1000.0
20
0.0
30
0.0
0
VERTEX
8
Lay1
62
1
10
1000.0
20
1500.0
30
0.0
0
VERTEX
8
Lay1
62
1
10
0.0
20
1500.0
30
0.0
0
VERTEX
8
Lay1
62
1
10
0.0
20
0.0
30
0.0
0
SEQEND
8
Lay1
0
POLYLINE
8
Lay1
62
1
66
1
70
1
10
0.0
20
0.0
30
200.0
39
0.0
0
VERTEX
8
Lay1
62
1
10
0.0
20
0.0
30
0.0
0
VERTEX
8
Lay1
62
1
10
1000.0
20
0.0
30
0.0
0
VERTEX
8
Lay1
62
1
10
1000.0
20
1500.0
30
0.0
0
VERTEX
8
Lay1
62
1
10
0.0
20
1500.0
30
0.0
0
VERTEX
8
Lay1
62
1
10
0.0
20
0.0
30
0.0
0
SEQEND
8
Lay1
0
3DFACE
8
Lay1
10
0.0
20
1500.0
30
0.0
11
0.0
21
1125.0
31
0.0
12
0.0
22
1125.0
32
200.0
13
0.0
23
1125.0
33
200.0
70
8
62
4
0
3DFACE
8
Lay1
10
0.0
20
1125.0
30
200.0
11
0.0
21
1500.0
31
200.0
12
0.0
22
1500.0
32
0.0
13
0.0
23
1500.0
33
0.0
70
8
62
4
0
3DFACE
8
Lay1
10
0.0
20
1125.0
30
0.0
11
0.0
21
750.0
31
0.0
12
0.0
22
750.0
32
200.0
13
0.0
23
750.0
33
200.0
70
8
62
4
0
3DFACE
8
Lay1
10
0.0
20
750.0
30
200.0
11
0.0
21
1125.0
31
200.0
12
0.0
22
1125.0
32
0.0
13
0.0
23
1125.0
33
0.0
70
8
62
4
0
3DFACE
8
Lay1
10
0.0
20
750.0
30
0.0
11
0.0
21
375.0
31
0.0
12
0.0
22
375.0
32
200.0
13
0.0
23
375.0
33
200.0
70
8
62
4
0
3DFACE
8
Lay1
10
0.0
20
375.0
30
200.0
11
0.0
21
750.0
31
200.0
12
0.0
22
750.0
32
0.0
13
0.0
23
750.0
33
0.0
70
8
62
4
0
3DFACE
8
Lay1
10
0.0
20
375.0
30
0.0
11
0.0
21
0.0
31
0.0
12
0.0
22
0.0
32
200.0
13
0.0
23
0.0
33
200.0
70
8
62
4
0
3DFACE
8
Lay1
10
0.0
20
0.0
30
200.0
11
0.0
21
375.0
31
200.0
12
0.0
22
375.0
32
0.0
13
0.0
23
375.0
33
0.0
70
8
62
4
0
3DFACE
8
Lay1
10
0.0
20
0.0
30
0.0
11
250.0
21
0.0
31
0.0
12
250.0
22
0.0
32
200.0
13
250.0
23
0.0
33
200.0
70
8
62
4
0
3DFACE
8
Lay1
10
250.0
20
0.0
30
200.0
11
0.0
21
0.0
31
200.0
12
0.0
22
0.0
32
0.0
13
0.0
23
0.0
33
0.0
70
8
62
4
0
3DFACE
8
Lay1
10
250.0
20
0.0
30
0.0
11
500.0
21
0.0
31
0.0
12
500.0
22
0.0
32
200.0
13
500.0
23
0.0
33
200.0
70
8
62
4
0
3DFACE
8
Lay1
10
500.0
20
0.0
30
200.0
11
250.0
21
0.0
31
200.0
12
250.0
22
0.0
32
0.0
13
250.0
23
0.0
33
0.0
70
8
62
4
0
3DFACE
8
Lay1
10
500.0
20
0.0
30
0.0
11
750.0
21
0.0
31
0.0
12
750.0
22
0.0
32
200.0
13
750.0
23
0.0
33
200.0
70
8
62
4
0
3DFACE
8
Lay1
10
750.0
20
0.0
30
200.0
11
500.0
21
0.0
31
200.0
12
500.0
22
0.0
32
0.0
13
500.0
23
0.0
33
0.0
70
8
62
4
0
3DFACE
8
Lay1
10
750.0
20
0.0
30
0.0
11
1000.0
21
0.0
31
0.0
12
1000.0
22
0.0
32
200.0
13
1000.0
23
0.0
33
200.0
70
8
62
4
0
3DFACE
8
Lay1
10
1000.0
20
0.0
30
200.0
11
750.0
21
0.0
31
200.0
12
750.0
22
0.0
32
0.0
13
750.0
23
0.0
33
0.0
70
8
62
4
0
3DFACE
8
Lay1
10
1000.0
20
0.0
30
0.0
11
1000.0
21
375.0
31
0.0
12
1000.0
22
375.0
32
200.0
13
1000.0
23
375.0
33
200.0
70
8
62
4
0
3DFACE
8
Lay1
10
1000.0
20
375.0
30
200.0
11
1000.0
21
0.0
31
200.0
12
1000.0
22
0.0
32
0.0
13
1000.0
23
0.0
33
0.0
70
8
62
4
0
3DFACE
8
Lay1
10
1000.0
20
375.0
30
0.0
11
1000.0
21
750.0
31
0.0
12
1000.0
22
750.0
32
200.0
13
1000.0
23
750.0
33
200.0
70
8
62
4
0
3DFACE
8
Lay1
10
1000.0
20
750.0
30
200.0
11
1000.0
21
375.0
31
200.0
12
1000.0
22
375.0
32
0.0
13
1000.0
23
375.0
33
0.0
70
8
62
4
0
3DFACE
8
Lay1
10
1000.0
20
750.0
30
0.0
11
1000.0
21
1125.0
31
0.0
12
1000.0
22
1125.0
32
200.0
13
1000.0
23
1125.0
33
200.0
70
8
62
4
0
3DFACE
8
Lay1
10
1000.0
20
1125.0
30
200.0
11
1000.0
21
750.0
31
200.0
12
1000.0
22
750.0
32
0.0
13
1000.0
23
750.0
33
0.0
70
8
62
4
0
3DFACE
8
Lay1
10
1000.0
20
1125.0
30
0.0
11
1000.0
21
1500.0
31
0.0
12
1000.0
22
1500.0
32
200.0
13
1000.0
23
1500.0
33
200.0
70
8
62
4
0
3DFACE
8
Lay1
10
1000.0
20
1500.0
30
200.0
11
1000.0
21
1125.0
31
200.0
12
1000.0
22
1125.0
32
0.0
13
1000.0
23
1125.0
33
0.0
70
8
62
4
0
3DFACE
8
Lay1
10
1000.0
20
1500.0
30
0.0
11
750.0
21
1500.0
31
0.0
12
750.0
22
1500.0
32
200.0
13
750.0
23
1500.0
33
200.0
70
8
62
4
0
3DFACE
8
Lay1
10
750.0
20
1500.0
30
200.0
11
1000.0
21
1500.0
31
200.0
12
1000.0
22
1500.0
32
0.0
13
1000.0
23
1500.0
33
0.0
70
8
62
4
0
3DFACE
8
Lay1
10
750.0
20
1500.0
30
0.0
11
500.0
21
1500.0
31
0.0
12
500.0
22
1500.0
32
200.0
13
500.0
23
1500.0
33
200.0
70
8
62
4
0
3DFACE
8
Lay1
10
500.0
20
1500.0
30
200.0
11
750.0
21
1500.0
31
200.0
12
750.0
22
1500.0
32
0.0
13
750.0
23
1500.0
33
0.0
70
8
62
4
0
3DFACE
8
Lay1
10
500.0
20
1500.0
30
0.0
11
250.0
21
1500.0
31
0.0
12
250.0
22
1500.0
32
200.0
13
250.0
23
1500.0
33
200.0
70
8
62
4
0
3DFACE
8
Lay1
10
250.0
20
1500.0
30
200.0
11
500.0
21
1500.0
31
200.0
12
500.0
22
1500.0
32
0.0
13
500.0
23
1500.0
33
0.0
70
8
62
4
0
3DFACE
8
Lay1
10
250.0
20
1500.0
30
0.0
11
0.0
21
1500.0
31
0.0
12
0.0
22
1500.0
32
200.0
13
0.0
23
1500.0
33
200.0
70
8
62
4
0
3DFACE
8
Lay1
10
0.0
20
1500.0
30
200.0
11
250.0
21
1500.0
31
200.0
12
250.0
22
1500.0
32
0.0
13
250.0
23
1500.0
33
0.0
70
8
62
4
0
3DFACE
8
Lay1
10
1000.0
20
0.0
30
200.0
11
750.0
21
375.0
31
200.0
12
750.0
22
0.0
32
200.0
13
750.0
23
0.0
33
200.0
70
8
62
4
0
3DFACE
8
Lay1
10
750.0
20
375.0
30
200.0
11
1000.0
21
0.0
31
200.0
12
1000.0
22
375.0
32
200.0
13
1000.0
23
375.0
33
200.0
70
8
62
4
0
3DFACE
8
Lay1
10
750.0
20
0.0
30
200.0
11
500.0
21
375.0
31
200.0
12
500.0
22
0.0
32
200.0
13
500.0
23
0.0
33
200.0
70
8
62
4
0
3DFACE
8
Lay1
10
500.0
20
375.0
30
200.0
11
750.0
21
0.0
31
200.0
12
750.0
22
375.0
32
200.0
13
750.0
23
375.0
33
200.0
70
8
62
4
0
3DFACE
8
Lay1
10
1000.0
20
375.0
30
200.0
11
750.0
21
750.0
31
200.0
12
750.0
22
375.0
32
200.0
13
750.0
23
375.0
33
200.0
70
8
62
4
0
3DFACE
8
Lay1
10
750.0
20
750.0
30
200.0
11
1000.0
21
375.0
31
200.0
12
1000.0
22
750.0
32
200.0
13
1000.0
23
750.0
33
200.0
70
8
62
4
0
3DFACE
8
Lay1
10
750.0
20
375.0
30
200.0
11
500.0
21
750.0
31
200.0
12
500.0
22
375.0
32
200.0
13
500.0
23
375.0
33
200.0
70
8
62
4
0
3DFACE
8
Lay1
10
500.0
20
750.0
30
200.0
11
750.0
21
375.0
31
200.0
12
750.0
22
750.0
32
200.0
13
750.0
23
750.0
33
200.0
70
8
62
4
0
3DFACE
8
Lay1
10
500.0
20
0.0
30
200.0
11
250.0
21
375.0
31
200.0
12
250.0
22
0.0
32
200.0
13
250.0
23
0.0
33
200.0
70
8
62
4
0
3DFACE
8
Lay1
10
250.0
20
375.0
30
200.0
11
500.0
21
0.0
31
200.0
12
500.0
22
375.0
32
200.0
13
500.0
23
375.0
33
200.0
70
8
62
4
0
3DFACE
8
Lay1
10
250.0
20
0.0
30
200.0
11
0.0
21
375.0
31
200.0
12
0.0
22
0.0
32
200.0
13
0.0
23
0.0
33
200.0
70
8
62
4
0
3DFACE
8
Lay1
10
0.0
20
375.0
30
200.0
11
250.0
21
0.0
31
200.0
12
250.0
22
375.0
32
200.0
13
250.0
23
375.0
33
200.0
70
8
62
4
0
3DFACE
8
Lay1
10
500.0
20
375.0
30
200.0
11
250.0
21
750.0
31
200.0
12
250.0
22
375.0
32
200.0
13
250.0
23
375.0
33
200.0
70
8
62
4
0
3DFACE
8
Lay1
10
250.0
20
750.0
30
200.0
11
500.0
21
375.0
31
200.0
12
500.0
22
750.0
32
200.0
13
500.0
23
750.0
33
200.0
70
8
62
4
0
3DFACE
8
Lay1
10
250.0
20
375.0
30
200.0
11
0.0
21
750.0
31
200.0
12
0.0
22
375.0
32
200.0
13
0.0
23
375.0
33
200.0
70
8
62
4
0
3DFACE
8
Lay1
10
0.0
20
750.0
30
200.0
11
250.0
21
375.0
31
200.0
12
250.0
22
750.0
32
200.0
13
250.0
23
750.0
33
200.0
70
8
62
4
0
3DFACE
8
Lay1
10
1000.0
20
750.0
30
200.0
11
750.0
21
1125.0
31
200.0
12
750.0
22
750.0
32
200.0
13
750.0
23
750.0
33
200.0
70
8
62
4
0
3DFACE
8
Lay1
10
750.0
20
1125.0
30
200.0
11
1000.0
21
750.0
31
200.0
12
1000.0
22
1125.0
32
200.0
13
1000.0
23
1125.0
33
200.0
70
8
62
4
0
3DFACE
8
Lay1
10
750.0
20
750.0
30
200.0
11
500.0
21
1125.0
31
200.0
12
500.0
22
750.0
32
200.0
13
500.0
23
750.0
33
200.0
70
8
62
4
0
3DFACE
8
Lay1
10
500.0
20
1125.0
30
200.0
11
750.0
21
750.0
31
200.0
12
750.0
22
1125.0
32
200.0
13
750.0
23
1125.0
33
200.0
70
8
62
4
0
3DFACE
8
Lay1
10
1000.0
20
1125.0
30
200.0
11
750.0
21
1500.0
31
200.0
12
750.0
22
1125.0
32
200.0
13
750.0
23
1125.0
33
200.0
70
8
62
4
0
3DFACE
8
Lay1
10
750.0
20
1500.0
30
200.0
11
1000.0
21
1125.0
31
200.0
12
1000.0
22
1500.0
32
200.0
13
1000.0
23
1500.0
33
200.0
70
8
62
4
0
3DFACE
8
Lay1
10
750.0
20
1125.0
30
200.0
11
500.0
21
1500.0
31
200.0
12
500.0
22
1125.0
32
200.0
13
500.0
23
1125.0
33
200.0
70
8
62
4
0
3DFACE
8
Lay1
10
500.0
20
1500.0
30
200.0
11
750.0
21
1125.0
31
200.0
12
750.0
22
1500.0
32
200.0
13
750.0
23
1500.0
33
200.0
70
8
62
4
0
3DFACE
8
Lay1
10
500.0
20
750.0
30
200.0
11
250.0
21
1125.0
31
200.0
12
250.0
22
750.0
32
200.0
13
250.0
23
750.0
33
200.0
70
8
62
4
0
3DFACE
8
Lay1
10
250.0
20
1125.0
30
200.0
11
500.0
21
750.0
31
200.0
12
500.0
22
1125.0
32
200.0
13
500.0
23
1125.0
33
200.0
70
8
62
4
0
3DFACE
8
Lay1
10
250.0
20
750.0
30
200.0
11
0.0
21
1125.0
31
200.0
12
0.0
22
750.0
32
200.0
13
0.0
23
750.0
33
200.0
70
8
62
4
0
3DFACE
8
Lay1
10
0.0
20
1125.0
30
200.0
11
250.0
21
750.0
31
200.0
12
250.0
22
1125.0
32
200.0
13
250.0
23
1125.0
33
200.0
70
8
62
4
0
3DFACE
8
Lay1
10
500.0
20
1125.0
30
200.0
11
250.0
21
1500.0
31
200.0
12
250.0
22
1125.0
32
200.0
13
250.0
23
1125.0
33
200.0
70
8
62
4
0
3DFACE
8
Lay1
10
250.0
20
1500.0
30
200.0
11
500.0
21
1125.0
31
200.0
12
500.0
22
1500.0
32
200.0
13
500.0
23
1500.0
33
200.0
70
8
62
4
0
3DFACE
8
Lay1
10
250.0
20
1125.0
30
200.0
11
0.0
21
1500.0
31
200.0
12
0.0
22
1125.0
32
200.0
13
0.0
23
1125.0
33
200.0
70
8
62
4
0
3DFACE
8
Lay1
10
0.0
20
1500.0
30
200.0
11
250.0
21
1125.0
31
200.0
12
250.0
22
1500.0
32
200.0
13
250.0
23
1500.0
33
200.0
70
8
62
4
0
3DFACE
8
Lay1
10
1000.0
20
0.0
30
0.0
11
750.0
21
0.0
31
0.0
12
750.0
22
375.0
32
0.0
13
750.0
23
375.0
33
0.0
70
8
62
4
0
3DFACE
8
Lay1
10
750.0
20
375.0
30
0.0
11
1000.0
21
375.0
31
0.0
12
1000.0
22
0.0
32
0.0
13
1000.0
23
0.0
33
0.0
70
8
62
4
0
3DFACE
8
Lay1
10
750.0
20
0.0
30
0.0
11
500.0
21
0.0
31
0.0
12
500.0
22
375.0
32
0.0
13
500.0
23
375.0
33
0.0
70
8
62
4
0
3DFACE
8
Lay1
10
500.0
20
375.0
30
0.0
11
750.0
21
375.0
31
0.0
12
750.0
22
0.0
32
0.0
13
750.0
23
0.0
33
0.0
70
8
62
4
0
3DFACE
8
Lay1
10
1000.0
20
375.0
30
0.0
11
750.0
21
375.0
31
0.0
12
750.0
22
750.0
32
0.0
13
750.0
23
750.0
33
0.0
70
8
62
4
0
3DFACE
8
Lay1
10
750.0
20
750.0
30
0.0
11
1000.0
21
750.0
31
0.0
12
1000.0
22
375.0
32
0.0
13
1000.0
23
375.0
33
0.0
70
8
62
4
0
3DFACE
8
Lay1
10
750.0
20
375.0
30
0.0
11
500.0
21
375.0
31
0.0
12
500.0
22
750.0
32
0.0
13
500.0
23
750.0
33
0.0
70
8
62
4
0
3DFACE
8
Lay1
10
500.0
20
750.0
30
0.0
11
750.0
21
750.0
31
0.0
12
750.0
22
375.0
32
0.0
13
750.0
23
375.0
33
0.0
70
8
62
4
0
3DFACE
8
Lay1
10
500.0
20
0.0
30
0.0
11
250.0
21
0.0
31
0.0
12
250.0
22
375.0
32
0.0
13
250.0
23
375.0
33
0.0
70
8
62
4
0
3DFACE
8
Lay1
10
250.0
20
375.0
30
0.0
11
500.0
21
375.0
31
0.0
12
500.0
22
0.0
32
0.0
13
500.0
23
0.0
33
0.0
70
8
62
4
0
3DFACE
8
Lay1
10
250.0
20
0.0
30
0.0
11
0.0
21
0.0
31
0.0
12
0.0
22
375.0
32
0.0
13
0.0
23
375.0
33
0.0
70
8
62
4
0
3DFACE
8
Lay1
10
0.0
20
375.0
30
0.0
11
250.0
21
375.0
31
0.0
12
250.0
22
0.0
32
0.0
13
250.0
23
0.0
33
0.0
70
8
62
4
0
3DFACE
8
Lay1
10
500.0
20
375.0
30
0.0
11
250.0
21
375.0
31
0.0
12
250.0
22
750.0
32
0.0
13
250.0
23
750.0
33
0.0
70
8
62
4
0
3DFACE
8
Lay1
10
250.0
20
750.0
30
0.0
11
500.0
21
750.0
31
0.0
12
500.0
22
375.0
32
0.0
13
500.0
23
375.0
33
0.0
70
8
62
4
0
3DFACE
8
Lay1
10
250.0
20
375.0
30
0.0
11
0.0
21
375.0
31
0.0
12
0.0
22
750.0
32
0.0
13
0.0
23
750.0
33
0.0
70
8
62
4
0
3DFACE
8
Lay1
10
0.0
20
750.0
30
0.0
11
250.0
21
750.0
31
0.0
12
250.0
22
375.0
32
0.0
13
250.0
23
375.0
33
0.0
70
8
62
4
0
3DFACE
8
Lay1
10
1000.0
20
750.0
30
0.0
11
750.0
21
750.0
31
0.0
12
750.0
22
1125.0
32
0.0
13
750.0
23
1125.0
33
0.0
70
8
62
4
0
3DFACE
8
Lay1
10
750.0
20
1125.0
30
0.0
11
1000.0
21
1125.0
31
0.0
12
1000.0
22
750.0
32
0.0
13
1000.0
23
750.0
33
0.0
70
8
62
4
0
3DFACE
8
Lay1
10
750.0
20
750.0
30
0.0
11
500.0
21
750.0
31
0.0
12
500.0
22
1125.0
32
0.0
13
500.0
23
1125.0
33
0.0
70
8
62
4
0
3DFACE
8
Lay1
10
500.0
20
1125.0
30
0.0
11
750.0
21
1125.0
31
0.0
12
750.0
22
750.0
32
0.0
13
750.0
23
750.0
33
0.0
70
8
62
4
0
3DFACE
8
Lay1
10
1000.0
20
1125.0
30
0.0
11
750.0
21
1125.0
31
0.0
12
750.0
22
1500.0
32
0.0
13
750.0
23
1500.0
33
0.0
70
8
62
4
0
3DFACE
8
Lay1
10
750.0
20
1500.0
30
0.0
11
1000.0
21
1500.0
31
0.0
12
1000.0
22
1125.0
32
0.0
13
1000.0
23
1125.0
33
0.0
70
8
62
4
0
3DFACE
8
Lay1
10
750.0
20
1125.0
30
0.0
11
500.0
21
1125.0
31
0.0
12
500.0
22
1500.0
32
0.0
13
500.0
23
1500.0
33
0.0
70
8
62
4
0
3DFACE
8
Lay1
10
500.0
20
1500.0
30
0.0
11
750.0
21
1500.0
31
0.0
12
750.0
22
1125.0
32
0.0
13
750.0
23
1125.0
33
0.0
70
8
62
4
0
3DFACE
8
Lay1
10
500.0
20
750.0
30
0.0
11
250.0
21
750.0
31
0.0
12
250.0
22
1125.0
32
0.0
13
250.0
23
1125.0
33
0.0
70
8
62
4
0
3DFACE
8
Lay1
10
250.0
20
1125.0
30
0.0
11
500.0
21
1125.0
31
0.0
12
500.0
22
750.0
32
0.0
13
500.0
23
750.0
33
0.0
70
8
62
4
0
3DFACE
8
Lay1
10
250.0
20
750.0
30
0.0
11
0.0
21
750.0
31
0.0
12
0.0
22
1125.0
32
0.0
13
0.0
23
1125.0
33
0.0
70
8
62
4
0
3DFACE
8
Lay1
10
0.0
20
1125.0
30
0.0
11
250.0
21
1125.0
31
0.0
12
250.0
22
750.0
32
0.0
13
250.0
23
750.0
33
0.0
70
8
62
4
0
3DFACE
8
Lay1
10
500.0
20
1125.0
30
0.0
11
250.0
21
1125.0
31
0.0
12
250.0
22
1500.0
32
0.0
13
250.0
23
1500.0
33
0.0
70
8
62
4
0
3DFACE
8
Lay1
10
250.0
20
1500.0
30
0.0
11
500.0
21
1500.0
31
0.0
12
500.0
22
1125.0
32
0.0
13
500.0
23
1125.0
33
0.0
70
8
62
4
0
3DFACE
8
Lay1
10
250.0
20
1125.0
30
0.0
11
0.0
21
1125.0
31
0.0
12
0.0
22
1500.0
32
0.0
13
0.0
23
1500.0
33
0.0
70
8
62
4
0
3DFACE
8
Lay1
10
0.0
20
1500.0
30
0.0
11
250.0
21
1500.0
31
0.0
12
250.0
22
1125.0
32
0.0
13
250.0
23
1125.0
33
0.0
70
8
62
4
0
ENDSEC
0
EOF
