999
From EasySTONE ver. 6.9e1
0
SECTION
2
ENTITIES
0
POLYLINE
8
Lay1
62
1
66
1
70
9
10
0.0
20
0.0
30
0.0
39
0.0
0
VERTEX
8
Lay1
62
1
10
100.0
20
-141.421356
30
100.0
0
VERTEX
8
Lay1
62
1
10
953.553391
20
358.578644
30
-46.446609
0
VERTEX
8
Lay1
62
1
10
733.883476
20
1108.578644
30
1233.883476
0
VERTEX
8
Lay1
62
1
10
-119.669914
20
608.578644
30
1380.330086
0
VERTEX
8
Lay1
62
1
10
100.0
20
-141.421356
30
100.0
0
SEQEND
8
Lay1
0
POLYLINE
8
Lay1
62
1
66
1
70
9
10
0.0
20
0.0
30
0.0
39
0.0
0
VERTEX
8
Lay1
62
1
10
0.0
20
0.0
30
0.0
0
VERTEX
8
Lay1
62
1
10
853.553391
20
500.0
30
-146.446609
0
VERTEX
8
Lay1
62
1
10
633.883476
20
1250.0
30
1133.883476
0
VERTEX
8
Lay1
62
1
10
-219.669914
20
750.0
30
1280.330086
0
VERTEX
8
Lay1
62
1
10
0.0
20
0.0
30
0.0
0
SEQEND
8
Lay1
0
3DFACE
8
Lay1
10
953.553391
20
358.578644
30
-46.446609
11
685.247564
21
421.078644
31
310.247564
12
740.165043
22
233.578644
32
-9.834957
13
740.165043
23
233.578644
33
-9.834957
70
8
62
4
0
3DFACE
8
Lay1
10
685.247564
20
421.078644
30
310.247564
11
953.553391
21
358.578644
31
-46.446609
12
898.635912
22
546.078644
32
273.635912
13
898.635912
23
546.078644
33
273.635912
70
8
62
4
0
3DFACE
8
Lay1
10
740.165043
20
233.578644
30
-9.834957
11
471.859217
21
296.078644
31
346.859217
12
526.776695
22
108.578644
32
26.776695
13
526.776695
23
108.578644
33
26.776695
70
8
62
4
0
3DFACE
8
Lay1
10
471.859217
20
296.078644
30
346.859217
11
740.165043
21
233.578644
31
-9.834957
12
685.247564
22
421.078644
32
310.247564
13
685.247564
23
421.078644
33
310.247564
70
8
62
4
0
3DFACE
8
Lay1
10
898.635912
20
546.078644
30
273.635912
11
630.330086
21
608.578644
31
630.330086
12
685.247564
22
421.078644
32
310.247564
13
685.247564
23
421.078644
33
310.247564
70
8
62
4
0
3DFACE
8
Lay1
10
630.330086
20
608.578644
30
630.330086
11
898.635912
21
546.078644
31
273.635912
12
843.718434
22
733.578644
32
593.718434
13
843.718434
23
733.578644
33
593.718434
70
8
62
4
0
3DFACE
8
Lay1
10
685.247564
20
421.078644
30
310.247564
11
416.941738
21
483.578644
31
666.941738
12
471.859217
22
296.078644
32
346.859217
13
471.859217
23
296.078644
33
346.859217
70
8
62
4
0
3DFACE
8
Lay1
10
416.941738
20
483.578644
30
666.941738
11
685.247564
21
421.078644
31
310.247564
12
630.330086
22
608.578644
32
630.330086
13
630.330086
23
608.578644
33
630.330086
70
8
62
4
0
3DFACE
8
Lay1
10
526.776695
20
108.578644
30
26.776695
11
258.470869
21
171.078644
31
383.470869
12
313.388348
22
-16.421356
32
63.388348
13
313.388348
23
-16.421356
33
63.388348
70
8
62
4
0
3DFACE
8
Lay1
10
258.470869
20
171.078644
30
383.470869
11
526.776695
21
108.578644
31
26.776695
12
471.859217
22
296.078644
32
346.859217
13
471.859217
23
296.078644
33
346.859217
70
8
62
4
0
3DFACE
8
Lay1
10
313.388348
20
-16.421356
30
63.388348
11
45.082521
21
46.078644
31
420.082521
12
100.0
22
-141.421356
32
100.0
13
100.0
23
-141.421356
33
100.0
70
8
62
4
0
3DFACE
8
Lay1
10
45.082521
20
46.078644
30
420.082521
11
313.388348
21
-16.421356
31
63.388348
12
258.470869
22
171.078644
32
383.470869
13
258.470869
23
171.078644
33
383.470869
70
8
62
4
0
3DFACE
8
Lay1
10
471.859217
20
296.078644
30
346.859217
11
203.553391
21
358.578644
31
703.553391
12
258.470869
22
171.078644
32
383.470869
13
258.470869
23
171.078644
33
383.470869
70
8
62
4
0
3DFACE
8
Lay1
10
203.553391
20
358.578644
30
703.553391
11
471.859217
21
296.078644
31
346.859217
12
416.941738
22
483.578644
32
666.941738
13
416.941738
23
483.578644
33
666.941738
70
8
62
4
0
3DFACE
8
Lay1
10
258.470869
20
171.078644
30
383.470869
11
-9.834957
21
233.578644
31
740.165043
12
45.082521
22
46.078644
32
420.082521
13
45.082521
23
46.078644
33
420.082521
70
8
62
4
0
3DFACE
8
Lay1
10
-9.834957
20
233.578644
30
740.165043
11
258.470869
21
171.078644
31
383.470869
12
203.553391
22
358.578644
32
703.553391
13
203.553391
23
358.578644
33
703.553391
70
8
62
4
0
3DFACE
8
Lay1
10
843.718434
20
733.578644
30
593.718434
11
575.412607
21
796.078644
31
950.412607
12
630.330086
22
608.578644
32
630.330086
13
630.330086
23
608.578644
33
630.330086
70
8
62
4
0
3DFACE
8
Lay1
10
575.412607
20
796.078644
30
950.412607
11
843.718434
21
733.578644
31
593.718434
12
788.800955
22
921.078644
32
913.800955
13
788.800955
23
921.078644
33
913.800955
70
8
62
4
0
3DFACE
8
Lay1
10
630.330086
20
608.578644
30
630.330086
11
362.02426
21
671.078644
31
987.02426
12
416.941738
22
483.578644
32
666.941738
13
416.941738
23
483.578644
33
666.941738
70
8
62
4
0
3DFACE
8
Lay1
10
362.02426
20
671.078644
30
987.02426
11
630.330086
21
608.578644
31
630.330086
12
575.412607
22
796.078644
32
950.412607
13
575.412607
23
796.078644
33
950.412607
70
8
62
4
0
3DFACE
8
Lay1
10
788.800955
20
921.078644
30
913.800955
11
520.495129
21
983.578644
31
1270.495129
12
575.412607
22
796.078644
32
950.412607
13
575.412607
23
796.078644
33
950.412607
70
8
62
4
0
3DFACE
8
Lay1
10
520.495129
20
983.578644
30
1270.495129
11
788.800955
21
921.078644
31
913.800955
12
733.883476
22
1108.578644
32
1233.883476
13
733.883476
23
1108.578644
33
1233.883476
70
8
62
4
0
3DFACE
8
Lay1
10
575.412607
20
796.078644
30
950.412607
11
307.106781
21
858.578644
31
1307.106781
12
362.02426
22
671.078644
32
987.02426
13
362.02426
23
671.078644
33
987.02426
70
8
62
4
0
3DFACE
8
Lay1
10
307.106781
20
858.578644
30
1307.106781
11
575.412607
21
796.078644
31
950.412607
12
520.495129
22
983.578644
32
1270.495129
13
520.495129
23
983.578644
33
1270.495129
70
8
62
4
0
3DFACE
8
Lay1
10
416.941738
20
483.578644
30
666.941738
11
148.635912
21
546.078644
31
1023.635912
12
203.553391
22
358.578644
32
703.553391
13
203.553391
23
358.578644
33
703.553391
70
8
62
4
0
3DFACE
8
Lay1
10
148.635912
20
546.078644
30
1023.635912
11
416.941738
21
483.578644
31
666.941738
12
362.02426
22
671.078644
32
987.02426
13
362.02426
23
671.078644
33
987.02426
70
8
62
4
0
3DFACE
8
Lay1
10
203.553391
20
358.578644
30
703.553391
11
-64.752436
21
421.078644
31
1060.247564
12
-9.834957
22
233.578644
32
740.165043
13
-9.834957
23
233.578644
33
740.165043
70
8
62
4
0
3DFACE
8
Lay1
10
-64.752436
20
421.078644
30
1060.247564
11
203.553391
21
358.578644
31
703.553391
12
148.635912
22
546.078644
32
1023.635912
13
148.635912
23
546.078644
33
1023.635912
70
8
62
4
0
3DFACE
8
Lay1
10
362.02426
20
671.078644
30
987.02426
11
93.718434
21
733.578644
31
1343.718434
12
148.635912
22
546.078644
32
1023.635912
13
148.635912
23
546.078644
33
1023.635912
70
8
62
4
0
3DFACE
8
Lay1
10
93.718434
20
733.578644
30
1343.718434
11
362.02426
21
671.078644
31
987.02426
12
307.106781
22
858.578644
32
1307.106781
13
307.106781
23
858.578644
33
1307.106781
70
8
62
4
0
3DFACE
8
Lay1
10
148.635912
20
546.078644
30
1023.635912
11
-119.669914
21
608.578644
31
1380.330086
12
-64.752436
22
421.078644
32
1060.247564
13
-64.752436
23
421.078644
33
1060.247564
70
8
62
4
0
3DFACE
8
Lay1
10
-119.669914
20
608.578644
30
1380.330086
11
148.635912
21
546.078644
31
1023.635912
12
93.718434
22
733.578644
32
1343.718434
13
93.718434
23
733.578644
33
1343.718434
70
8
62
4
0
3DFACE
8
Lay1
10
-219.669914
20
750.0
30
1280.330086
11
-164.752436
21
562.5
31
960.247564
12
-64.752436
22
421.078644
32
1060.247564
13
-64.752436
23
421.078644
33
1060.247564
70
8
62
4
0
3DFACE
8
Lay1
10
-64.752436
20
421.078644
30
1060.247564
11
-119.669914
21
608.578644
31
1380.330086
12
-219.669914
22
750.0
32
1280.330086
13
-219.669914
23
750.0
33
1280.330086
70
8
62
4
0
3DFACE
8
Lay1
10
-164.752436
20
562.5
30
960.247564
11
-109.834957
21
375.0
31
640.165043
12
-9.834957
22
233.578644
32
740.165043
13
-9.834957
23
233.578644
33
740.165043
70
8
62
4
0
3DFACE
8
Lay1
10
-9.834957
20
233.578644
30
740.165043
11
-64.752436
21
421.078644
31
1060.247564
12
-164.752436
22
562.5
32
960.247564
13
-164.752436
23
562.5
33
960.247564
70
8
62
4
0
3DFACE
8
Lay1
10
-109.834957
20
375.0
30
640.165043
11
-54.917479
21
187.5
31
320.082521
12
45.082521
22
46.078644
32
420.082521
13
45.082521
23
46.078644
33
420.082521
70
8
62
4
0
3DFACE
8
Lay1
10
45.082521
20
46.078644
30
420.082521
11
-9.834957
21
233.578644
31
740.165043
12
-109.834957
22
375.0
32
640.165043
13
-109.834957
23
375.0
33
640.165043
70
8
62
4
0
3DFACE
8
Lay1
10
-54.917479
20
187.5
30
320.082521
11
0.0
21
0.0
31
0.0
12
100.0
22
-141.421356
32
100.0
13
100.0
23
-141.421356
33
100.0
70
8
62
4
0
3DFACE
8
Lay1
10
100.0
20
-141.421356
30
100.0
11
45.082521
21
46.078644
31
420.082521
12
-54.917479
22
187.5
32
320.082521
13
-54.917479
23
187.5
33
320.082521
70
8
62
4
0
3DFACE
8
Lay1
10
0.0
20
0.0
30
0.0
11
213.388348
21
125.0
31
-36.611652
12
313.388348
22
-16.421356
32
63.388348
13
313.388348
23
-16.421356
33
63.388348
70
8
62
4
0
3DFACE
8
Lay1
10
313.388348
20
-16.421356
30
63.388348
11
100.0
21
-141.421356
31
100.0
12
0.0
22
0.0
32
0.0
13
0.0
23
0.0
33
0.0
70
8
62
4
0
3DFACE
8
Lay1
10
213.388348
20
125.0
30
-36.611652
11
426.776695
21
250.0
31
-73.223305
12
526.776695
22
108.578644
32
26.776695
13
526.776695
23
108.578644
33
26.776695
70
8
62
4
0
3DFACE
8
Lay1
10
526.776695
20
108.578644
30
26.776695
11
313.388348
21
-16.421356
31
63.388348
12
213.388348
22
125.0
32
-36.611652
13
213.388348
23
125.0
33
-36.611652
70
8
62
4
0
3DFACE
8
Lay1
10
426.776695
20
250.0
30
-73.223305
11
640.165043
21
375.0
31
-109.834957
12
740.165043
22
233.578644
32
-9.834957
13
740.165043
23
233.578644
33
-9.834957
70
8
62
4
0
3DFACE
8
Lay1
10
740.165043
20
233.578644
30
-9.834957
11
526.776695
21
108.578644
31
26.776695
12
426.776695
22
250.0
32
-73.223305
13
426.776695
23
250.0
33
-73.223305
70
8
62
4
0
3DFACE
8
Lay1
10
640.165043
20
375.0
30
-109.834957
11
853.553391
21
500.0
31
-146.446609
12
953.553391
22
358.578644
32
-46.446609
13
953.553391
23
358.578644
33
-46.446609
70
8
62
4
0
3DFACE
8
Lay1
10
953.553391
20
358.578644
30
-46.446609
11
740.165043
21
233.578644
31
-9.834957
12
640.165043
22
375.0
32
-109.834957
13
640.165043
23
375.0
33
-109.834957
70
8
62
4
0
3DFACE
8
Lay1
10
853.553391
20
500.0
30
-146.446609
11
798.635912
21
687.5
31
173.635912
12
898.635912
22
546.078644
32
273.635912
13
898.635912
23
546.078644
33
273.635912
70
8
62
4
0
3DFACE
8
Lay1
10
898.635912
20
546.078644
30
273.635912
11
953.553391
21
358.578644
31
-46.446609
12
853.553391
22
500.0
32
-146.446609
13
853.553391
23
500.0
33
-146.446609
70
8
62
4
0
3DFACE
8
Lay1
10
798.635912
20
687.5
30
173.635912
11
743.718434
21
875.0
31
493.718434
12
843.718434
22
733.578644
32
593.718434
13
843.718434
23
733.578644
33
593.718434
70
8
62
4
0
3DFACE
8
Lay1
10
843.718434
20
733.578644
30
593.718434
11
898.635912
21
546.078644
31
273.635912
12
798.635912
22
687.5
32
173.635912
13
798.635912
23
687.5
33
173.635912
70
8
62
4
0
3DFACE
8
Lay1
10
743.718434
20
875.0
30
493.718434
11
688.800955
21
1062.5
31
813.800955
12
788.800955
22
921.078644
32
913.800955
13
788.800955
23
921.078644
33
913.800955
70
8
62
4
0
3DFACE
8
Lay1
10
788.800955
20
921.078644
30
913.800955
11
843.718434
21
733.578644
31
593.718434
12
743.718434
22
875.0
32
493.718434
13
743.718434
23
875.0
33
493.718434
70
8
62
4
0
3DFACE
8
Lay1
10
688.800955
20
1062.5
30
813.800955
11
633.883476
21
1250.0
31
1133.883476
12
733.883476
22
1108.578644
32
1233.883476
13
733.883476
23
1108.578644
33
1233.883476
70
8
62
4
0
3DFACE
8
Lay1
10
733.883476
20
1108.578644
30
1233.883476
11
788.800955
21
921.078644
31
913.800955
12
688.800955
22
1062.5
32
813.800955
13
688.800955
23
1062.5
33
813.800955
70
8
62
4
0
3DFACE
8
Lay1
10
633.883476
20
1250.0
30
1133.883476
11
420.495129
21
1125.0
31
1170.495129
12
520.495129
22
983.578644
32
1270.495129
13
520.495129
23
983.578644
33
1270.495129
70
8
62
4
0
3DFACE
8
Lay1
10
520.495129
20
983.578644
30
1270.495129
11
733.883476
21
1108.578644
31
1233.883476
12
633.883476
22
1250.0
32
1133.883476
13
633.883476
23
1250.0
33
1133.883476
70
8
62
4
0
3DFACE
8
Lay1
10
420.495129
20
1125.0
30
1170.495129
11
207.106781
21
1000.0
31
1207.106781
12
307.106781
22
858.578644
32
1307.106781
13
307.106781
23
858.578644
33
1307.106781
70
8
62
4
0
3DFACE
8
Lay1
10
307.106781
20
858.578644
30
1307.106781
11
520.495129
21
983.578644
31
1270.495129
12
420.495129
22
1125.0
32
1170.495129
13
420.495129
23
1125.0
33
1170.495129
70
8
62
4
0
3DFACE
8
Lay1
10
207.106781
20
1000.0
30
1207.106781
11
-6.281566
21
875.0
31
1243.718434
12
93.718434
22
733.578644
32
1343.718434
13
93.718434
23
733.578644
33
1343.718434
70
8
62
4
0
3DFACE
8
Lay1
10
93.718434
20
733.578644
30
1343.718434
11
307.106781
21
858.578644
31
1307.106781
12
207.106781
22
1000.0
32
1207.106781
13
207.106781
23
1000.0
33
1207.106781
70
8
62
4
0
3DFACE
8
Lay1
10
-6.281566
20
875.0
30
1243.718434
11
-219.669914
21
750.0
31
1280.330086
12
-119.669914
22
608.578644
32
1380.330086
13
-119.669914
23
608.578644
33
1380.330086
70
8
62
4
0
3DFACE
8
Lay1
10
-119.669914
20
608.578644
30
1380.330086
11
93.718434
21
733.578644
31
1343.718434
12
-6.281566
22
875.0
32
1243.718434
13
-6.281566
23
875.0
33
1243.718434
70
8
62
4
0
3DFACE
8
Lay1
10
853.553391
20
500.0
30
-146.446609
11
640.165043
21
375.0
31
-109.834957
12
585.247564
22
562.5
32
210.247564
13
585.247564
23
562.5
33
210.247564
70
8
62
4
0
3DFACE
8
Lay1
10
585.247564
20
562.5
30
210.247564
11
798.635912
21
687.5
31
173.635912
12
853.553391
22
500.0
32
-146.446609
13
853.553391
23
500.0
33
-146.446609
70
8
62
4
0
3DFACE
8
Lay1
10
640.165043
20
375.0
30
-109.834957
11
426.776695
21
250.0
31
-73.223305
12
371.859217
22
437.5
32
246.859217
13
371.859217
23
437.5
33
246.859217
70
8
62
4
0
3DFACE
8
Lay1
10
371.859217
20
437.5
30
246.859217
11
585.247564
21
562.5
31
210.247564
12
640.165043
22
375.0
32
-109.834957
13
640.165043
23
375.0
33
-109.834957
70
8
62
4
0
3DFACE
8
Lay1
10
798.635912
20
687.5
30
173.635912
11
585.247564
21
562.5
31
210.247564
12
530.330086
22
750.0
32
530.330086
13
530.330086
23
750.0
33
530.330086
70
8
62
4
0
3DFACE
8
Lay1
10
530.330086
20
750.0
30
530.330086
11
743.718434
21
875.0
31
493.718434
12
798.635912
22
687.5
32
173.635912
13
798.635912
23
687.5
33
173.635912
70
8
62
4
0
3DFACE
8
Lay1
10
585.247564
20
562.5
30
210.247564
11
371.859217
21
437.5
31
246.859217
12
316.941738
22
625.0
32
566.941738
13
316.941738
23
625.0
33
566.941738
70
8
62
4
0
3DFACE
8
Lay1
10
316.941738
20
625.0
30
566.941738
11
530.330086
21
750.0
31
530.330086
12
585.247564
22
562.5
32
210.247564
13
585.247564
23
562.5
33
210.247564
70
8
62
4
0
3DFACE
8
Lay1
10
426.776695
20
250.0
30
-73.223305
11
213.388348
21
125.0
31
-36.611652
12
158.470869
22
312.5
32
283.470869
13
158.470869
23
312.5
33
283.470869
70
8
62
4
0
3DFACE
8
Lay1
10
158.470869
20
312.5
30
283.470869
11
371.859217
21
437.5
31
246.859217
12
426.776695
22
250.0
32
-73.223305
13
426.776695
23
250.0
33
-73.223305
70
8
62
4
0
3DFACE
8
Lay1
10
213.388348
20
125.0
30
-36.611652
11
0.0
21
0.0
31
0.0
12
-54.917479
22
187.5
32
320.082521
13
-54.917479
23
187.5
33
320.082521
70
8
62
4
0
3DFACE
8
Lay1
10
-54.917479
20
187.5
30
320.082521
11
158.470869
21
312.5
31
283.470869
12
213.388348
22
125.0
32
-36.611652
13
213.388348
23
125.0
33
-36.611652
70
8
62
4
0
3DFACE
8
Lay1
10
371.859217
20
437.5
30
246.859217
11
158.470869
21
312.5
31
283.470869
12
103.553391
22
500.0
32
603.553391
13
103.553391
23
500.0
33
603.553391
70
8
62
4
0
3DFACE
8
Lay1
10
103.553391
20
500.0
30
603.553391
11
316.941738
21
625.0
31
566.941738
12
371.859217
22
437.5
32
246.859217
13
371.859217
23
437.5
33
246.859217
70
8
62
4
0
3DFACE
8
Lay1
10
158.470869
20
312.5
30
283.470869
11
-54.917479
21
187.5
31
320.082521
12
-109.834957
22
375.0
32
640.165043
13
-109.834957
23
375.0
33
640.165043
70
8
62
4
0
3DFACE
8
Lay1
10
-109.834957
20
375.0
30
640.165043
11
103.553391
21
500.0
31
603.553391
12
158.470869
22
312.5
32
283.470869
13
158.470869
23
312.5
33
283.470869
70
8
62
4
0
3DFACE
8
Lay1
10
743.718434
20
875.0
30
493.718434
11
530.330086
21
750.0
31
530.330086
12
475.412607
22
937.5
32
850.412607
13
475.412607
23
937.5
33
850.412607
70
8
62
4
0
3DFACE
8
Lay1
10
475.412607
20
937.5
30
850.412607
11
688.800955
21
1062.5
31
813.800955
12
743.718434
22
875.0
32
493.718434
13
743.718434
23
875.0
33
493.718434
70
8
62
4
0
3DFACE
8
Lay1
10
530.330086
20
750.0
30
530.330086
11
316.941738
21
625.0
31
566.941738
12
262.02426
22
812.5
32
887.02426
13
262.02426
23
812.5
33
887.02426
70
8
62
4
0
3DFACE
8
Lay1
10
262.02426
20
812.5
30
887.02426
11
475.412607
21
937.5
31
850.412607
12
530.330086
22
750.0
32
530.330086
13
530.330086
23
750.0
33
530.330086
70
8
62
4
0
3DFACE
8
Lay1
10
688.800955
20
1062.5
30
813.800955
11
475.412607
21
937.5
31
850.412607
12
420.495129
22
1125.0
32
1170.495129
13
420.495129
23
1125.0
33
1170.495129
70
8
62
4
0
3DFACE
8
Lay1
10
420.495129
20
1125.0
30
1170.495129
11
633.883476
21
1250.0
31
1133.883476
12
688.800955
22
1062.5
32
813.800955
13
688.800955
23
1062.5
33
813.800955
70
8
62
4
0
3DFACE
8
Lay1
10
475.412607
20
937.5
30
850.412607
11
262.02426
21
812.5
31
887.02426
12
207.106781
22
1000.0
32
1207.106781
13
207.106781
23
1000.0
33
1207.106781
70
8
62
4
0
3DFACE
8
Lay1
10
207.106781
20
1000.0
30
1207.106781
11
420.495129
21
1125.0
31
1170.495129
12
475.412607
22
937.5
32
850.412607
13
475.412607
23
937.5
33
850.412607
70
8
62
4
0
3DFACE
8
Lay1
10
316.941738
20
625.0
30
566.941738
11
103.553391
21
500.0
31
603.553391
12
48.635912
22
687.5
32
923.635912
13
48.635912
23
687.5
33
923.635912
70
8
62
4
0
3DFACE
8
Lay1
10
48.635912
20
687.5
30
923.635912
11
262.02426
21
812.5
31
887.02426
12
316.941738
22
625.0
32
566.941738
13
316.941738
23
625.0
33
566.941738
70
8
62
4
0
3DFACE
8
Lay1
10
103.553391
20
500.0
30
603.553391
11
-109.834957
21
375.0
31
640.165043
12
-164.752436
22
562.5
32
960.247564
13
-164.752436
23
562.5
33
960.247564
70
8
62
4
0
3DFACE
8
Lay1
10
-164.752436
20
562.5
30
960.247564
11
48.635912
21
687.5
31
923.635912
12
103.553391
22
500.0
32
603.553391
13
103.553391
23
500.0
33
603.553391
70
8
62
4
0
3DFACE
8
Lay1
10
262.02426
20
812.5
30
887.02426
11
48.635912
21
687.5
31
923.635912
12
-6.281566
22
875.0
32
1243.718434
13
-6.281566
23
875.0
33
1243.718434
70
8
62
4
0
3DFACE
8
Lay1
10
-6.281566
20
875.0
30
1243.718434
11
207.106781
21
1000.0
31
1207.106781
12
262.02426
22
812.5
32
887.02426
13
262.02426
23
812.5
33
887.02426
70
8
62
4
0
3DFACE
8
Lay1
10
48.635912
20
687.5
30
923.635912
11
-164.752436
21
562.5
31
960.247564
12
-219.669914
22
750.0
32
1280.330086
13
-219.669914
23
750.0
33
1280.330086
70
8
62
4
0
3DFACE
8
Lay1
10
-219.669914
20
750.0
30
1280.330086
11
-6.281566
21
875.0
31
1243.718434
12
48.635912
22
687.5
32
923.635912
13
48.635912
23
687.5
33
923.635912
70
8
62
4
0
ENDSEC
0
EOF
