999
From EasySTONE ver. 6.9e1
0
SECTION
2
ENTITIES
0
POLYLINE
8
Lay1
62
1
66
1
70
9
10
0.0
20
0.0
30
0.0
39
0.0
0
VERTEX
8
Lay1
62
1
10
0.0
20
-141.421356
30
141.421356
0
VERTEX
8
Lay1
62
1
10
707.106781
20
358.578644
30
641.421356
0
VERTEX
8
Lay1
62
1
10
-353.553391
20
1108.578644
30
1391.421356
0
VERTEX
8
Lay1
62
1
10
-1060.660172
20
608.578644
30
891.421356
0
VERTEX
8
Lay1
62
1
10
0.0
20
-141.421356
30
141.421356
0
SEQEND
8
Lay1
0
POLYLINE
8
Lay1
62
1
66
1
70
9
10
0.0
20
0.0
30
0.0
39
0.0
0
VERTEX
8
Lay1
62
1
10
0.0
20
0.0
30
0.0
0
VERTEX
8
Lay1
62
1
10
707.106781
20
500.0
30
500.0
0
VERTEX
8
Lay1
62
1
10
-353.553391
20
1250.0
30
1250.0
0
VERTEX
8
Lay1
62
1
10
-1060.660172
20
750.0
30
750.0
0
VERTEX
8
Lay1
62
1
10
0.0
20
0.0
30
0.0
0
SEQEND
8
Lay1
0
3DFACE
8
Lay1
10
707.106781
20
358.578644
30
641.421356
11
265.165043
21
421.078644
31
703.921356
12
530.330086
22
233.578644
32
516.421356
13
530.330086
23
233.578644
33
516.421356
70
8
62
4
0
3DFACE
8
Lay1
10
265.165043
20
421.078644
30
703.921356
11
707.106781
21
358.578644
31
641.421356
12
441.941738
22
546.078644
32
828.921356
13
441.941738
23
546.078644
33
828.921356
70
8
62
4
0
3DFACE
8
Lay1
10
530.330086
20
233.578644
30
516.421356
11
88.388348
21
296.078644
31
578.921356
12
353.553391
22
108.578644
32
391.421356
13
353.553391
23
108.578644
33
391.421356
70
8
62
4
0
3DFACE
8
Lay1
10
88.388348
20
296.078644
30
578.921356
11
530.330086
21
233.578644
31
516.421356
12
265.165043
22
421.078644
32
703.921356
13
265.165043
23
421.078644
33
703.921356
70
8
62
4
0
3DFACE
8
Lay1
10
441.941738
20
546.078644
30
828.921356
11
0.0
21
608.578644
31
891.421356
12
265.165043
22
421.078644
32
703.921356
13
265.165043
23
421.078644
33
703.921356
70
8
62
4
0
3DFACE
8
Lay1
10
0.0
20
608.578644
30
891.421356
11
441.941738
21
546.078644
31
828.921356
12
176.776695
22
733.578644
32
1016.421356
13
176.776695
23
733.578644
33
1016.421356
70
8
62
4
0
3DFACE
8
Lay1
10
265.165043
20
421.078644
30
703.921356
11
-176.776695
21
483.578644
31
766.421356
12
88.388348
22
296.078644
32
578.921356
13
88.388348
23
296.078644
33
578.921356
70
8
62
4
0
3DFACE
8
Lay1
10
-176.776695
20
483.578644
30
766.421356
11
265.165043
21
421.078644
31
703.921356
12
0.0
22
608.578644
32
891.421356
13
0.0
23
608.578644
33
891.421356
70
8
62
4
0
3DFACE
8
Lay1
10
353.553391
20
108.578644
30
391.421356
11
-88.388348
21
171.078644
31
453.921356
12
176.776695
22
-16.421356
32
266.421356
13
176.776695
23
-16.421356
33
266.421356
70
8
62
4
0
3DFACE
8
Lay1
10
-88.388348
20
171.078644
30
453.921356
11
353.553391
21
108.578644
31
391.421356
12
88.388348
22
296.078644
32
578.921356
13
88.388348
23
296.078644
33
578.921356
70
8
62
4
0
3DFACE
8
Lay1
10
176.776695
20
-16.421356
30
266.421356
11
-265.165043
21
46.078644
31
328.921356
12
0.0
22
-141.421356
32
141.421356
13
0.0
23
-141.421356
33
141.421356
70
8
62
4
0
3DFACE
8
Lay1
10
-265.165043
20
46.078644
30
328.921356
11
176.776695
21
-16.421356
31
266.421356
12
-88.388348
22
171.078644
32
453.921356
13
-88.388348
23
171.078644
33
453.921356
70
8
62
4
0
3DFACE
8
Lay1
10
88.388348
20
296.078644
30
578.921356
11
-353.553391
21
358.578644
31
641.421356
12
-88.388348
22
171.078644
32
453.921356
13
-88.388348
23
171.078644
33
453.921356
70
8
62
4
0
3DFACE
8
Lay1
10
-353.553391
20
358.578644
30
641.421356
11
88.388348
21
296.078644
31
578.921356
12
-176.776695
22
483.578644
32
766.421356
13
-176.776695
23
483.578644
33
766.421356
70
8
62
4
0
3DFACE
8
Lay1
10
-88.388348
20
171.078644
30
453.921356
11
-530.330086
21
233.578644
31
516.421356
12
-265.165043
22
46.078644
32
328.921356
13
-265.165043
23
46.078644
33
328.921356
70
8
62
4
0
3DFACE
8
Lay1
10
-530.330086
20
233.578644
30
516.421356
11
-88.388348
21
171.078644
31
453.921356
12
-353.553391
22
358.578644
32
641.421356
13
-353.553391
23
358.578644
33
641.421356
70
8
62
4
0
3DFACE
8
Lay1
10
176.776695
20
733.578644
30
1016.421356
11
-265.165043
21
796.078644
31
1078.921356
12
0.0
22
608.578644
32
891.421356
13
0.0
23
608.578644
33
891.421356
70
8
62
4
0
3DFACE
8
Lay1
10
-265.165043
20
796.078644
30
1078.921356
11
176.776695
21
733.578644
31
1016.421356
12
-88.388348
22
921.078644
32
1203.921356
13
-88.388348
23
921.078644
33
1203.921356
70
8
62
4
0
3DFACE
8
Lay1
10
0.0
20
608.578644
30
891.421356
11
-441.941738
21
671.078644
31
953.921356
12
-176.776695
22
483.578644
32
766.421356
13
-176.776695
23
483.578644
33
766.421356
70
8
62
4
0
3DFACE
8
Lay1
10
-441.941738
20
671.078644
30
953.921356
11
0.0
21
608.578644
31
891.421356
12
-265.165043
22
796.078644
32
1078.921356
13
-265.165043
23
796.078644
33
1078.921356
70
8
62
4
0
3DFACE
8
Lay1
10
-88.388348
20
921.078644
30
1203.921356
11
-530.330086
21
983.578644
31
1266.421356
12
-265.165043
22
796.078644
32
1078.921356
13
-265.165043
23
796.078644
33
1078.921356
70
8
62
4
0
3DFACE
8
Lay1
10
-530.330086
20
983.578644
30
1266.421356
11
-88.388348
21
921.078644
31
1203.921356
12
-353.553391
22
1108.578644
32
1391.421356
13
-353.553391
23
1108.578644
33
1391.421356
70
8
62
4
0
3DFACE
8
Lay1
10
-265.165043
20
796.078644
30
1078.921356
11
-707.106781
21
858.578644
31
1141.421356
12
-441.941738
22
671.078644
32
953.921356
13
-441.941738
23
671.078644
33
953.921356
70
8
62
4
0
3DFACE
8
Lay1
10
-707.106781
20
858.578644
30
1141.421356
11
-265.165043
21
796.078644
31
1078.921356
12
-530.330086
22
983.578644
32
1266.421356
13
-530.330086
23
983.578644
33
1266.421356
70
8
62
4
0
3DFACE
8
Lay1
10
-176.776695
20
483.578644
30
766.421356
11
-618.718434
21
546.078644
31
828.921356
12
-353.553391
22
358.578644
32
641.421356
13
-353.553391
23
358.578644
33
641.421356
70
8
62
4
0
3DFACE
8
Lay1
10
-618.718434
20
546.078644
30
828.921356
11
-176.776695
21
483.578644
31
766.421356
12
-441.941738
22
671.078644
32
953.921356
13
-441.941738
23
671.078644
33
953.921356
70
8
62
4
0
3DFACE
8
Lay1
10
-353.553391
20
358.578644
30
641.421356
11
-795.495129
21
421.078644
31
703.921356
12
-530.330086
22
233.578644
32
516.421356
13
-530.330086
23
233.578644
33
516.421356
70
8
62
4
0
3DFACE
8
Lay1
10
-795.495129
20
421.078644
30
703.921356
11
-353.553391
21
358.578644
31
641.421356
12
-618.718434
22
546.078644
32
828.921356
13
-618.718434
23
546.078644
33
828.921356
70
8
62
4
0
3DFACE
8
Lay1
10
-441.941738
20
671.078644
30
953.921356
11
-883.883476
21
733.578644
31
1016.421356
12
-618.718434
22
546.078644
32
828.921356
13
-618.718434
23
546.078644
33
828.921356
70
8
62
4
0
3DFACE
8
Lay1
10
-883.883476
20
733.578644
30
1016.421356
11
-441.941738
21
671.078644
31
953.921356
12
-707.106781
22
858.578644
32
1141.421356
13
-707.106781
23
858.578644
33
1141.421356
70
8
62
4
0
3DFACE
8
Lay1
10
-618.718434
20
546.078644
30
828.921356
11
-1060.660172
21
608.578644
31
891.421356
12
-795.495129
22
421.078644
32
703.921356
13
-795.495129
23
421.078644
33
703.921356
70
8
62
4
0
3DFACE
8
Lay1
10
-1060.660172
20
608.578644
30
891.421356
11
-618.718434
21
546.078644
31
828.921356
12
-883.883476
22
733.578644
32
1016.421356
13
-883.883476
23
733.578644
33
1016.421356
70
8
62
4
0
3DFACE
8
Lay1
10
-1060.660172
20
750.0
30
750.0
11
-795.495129
21
562.5
31
562.5
12
-795.495129
22
421.078644
32
703.921356
13
-795.495129
23
421.078644
33
703.921356
70
8
62
4
0
3DFACE
8
Lay1
10
-795.495129
20
421.078644
30
703.921356
11
-1060.660172
21
608.578644
31
891.421356
12
-1060.660172
22
750.0
32
750.0
13
-1060.660172
23
750.0
33
750.0
70
8
62
4
0
3DFACE
8
Lay1
10
-795.495129
20
562.5
30
562.5
11
-530.330086
21
375.0
31
375.0
12
-530.330086
22
233.578644
32
516.421356
13
-530.330086
23
233.578644
33
516.421356
70
8
62
4
0
3DFACE
8
Lay1
10
-530.330086
20
233.578644
30
516.421356
11
-795.495129
21
421.078644
31
703.921356
12
-795.495129
22
562.5
32
562.5
13
-795.495129
23
562.5
33
562.5
70
8
62
4
0
3DFACE
8
Lay1
10
-530.330086
20
375.0
30
375.0
11
-265.165043
21
187.5
31
187.5
12
-265.165043
22
46.078644
32
328.921356
13
-265.165043
23
46.078644
33
328.921356
70
8
62
4
0
3DFACE
8
Lay1
10
-265.165043
20
46.078644
30
328.921356
11
-530.330086
21
233.578644
31
516.421356
12
-530.330086
22
375.0
32
375.0
13
-530.330086
23
375.0
33
375.0
70
8
62
4
0
3DFACE
8
Lay1
10
-265.165043
20
187.5
30
187.5
11
0.0
21
0.0
31
0.0
12
0.0
22
-141.421356
32
141.421356
13
0.0
23
-141.421356
33
141.421356
70
8
62
4
0
3DFACE
8
Lay1
10
0.0
20
-141.421356
30
141.421356
11
-265.165043
21
46.078644
31
328.921356
12
-265.165043
22
187.5
32
187.5
13
-265.165043
23
187.5
33
187.5
70
8
62
4
0
3DFACE
8
Lay1
10
0.0
20
0.0
30
0.0
11
176.776695
21
125.0
31
125.0
12
176.776695
22
-16.421356
32
266.421356
13
176.776695
23
-16.421356
33
266.421356
70
8
62
4
0
3DFACE
8
Lay1
10
176.776695
20
-16.421356
30
266.421356
11
0.0
21
-141.421356
31
141.421356
12
0.0
22
0.0
32
0.0
13
0.0
23
0.0
33
0.0
70
8
62
4
0
3DFACE
8
Lay1
10
176.776695
20
125.0
30
125.0
11
353.553391
21
250.0
31
250.0
12
353.553391
22
108.578644
32
391.421356
13
353.553391
23
108.578644
33
391.421356
70
8
62
4
0
3DFACE
8
Lay1
10
353.553391
20
108.578644
30
391.421356
11
176.776695
21
-16.421356
31
266.421356
12
176.776695
22
125.0
32
125.0
13
176.776695
23
125.0
33
125.0
70
8
62
4
0
3DFACE
8
Lay1
10
353.553391
20
250.0
30
250.0
11
530.330086
21
375.0
31
375.0
12
530.330086
22
233.578644
32
516.421356
13
530.330086
23
233.578644
33
516.421356
70
8
62
4
0
3DFACE
8
Lay1
10
530.330086
20
233.578644
30
516.421356
11
353.553391
21
108.578644
31
391.421356
12
353.553391
22
250.0
32
250.0
13
353.553391
23
250.0
33
250.0
70
8
62
4
0
3DFACE
8
Lay1
10
530.330086
20
375.0
30
375.0
11
707.106781
21
500.0
31
500.0
12
707.106781
22
358.578644
32
641.421356
13
707.106781
23
358.578644
33
641.421356
70
8
62
4
0
3DFACE
8
Lay1
10
707.106781
20
358.578644
30
641.421356
11
530.330086
21
233.578644
31
516.421356
12
530.330086
22
375.0
32
375.0
13
530.330086
23
375.0
33
375.0
70
8
62
4
0
3DFACE
8
Lay1
10
707.106781
20
500.0
30
500.0
11
441.941738
21
687.5
31
687.5
12
441.941738
22
546.078644
32
828.921356
13
441.941738
23
546.078644
33
828.921356
70
8
62
4
0
3DFACE
8
Lay1
10
441.941738
20
546.078644
30
828.921356
11
707.106781
21
358.578644
31
641.421356
12
707.106781
22
500.0
32
500.0
13
707.106781
23
500.0
33
500.0
70
8
62
4
0
3DFACE
8
Lay1
10
441.941738
20
687.5
30
687.5
11
176.776695
21
875.0
31
875.0
12
176.776695
22
733.578644
32
1016.421356
13
176.776695
23
733.578644
33
1016.421356
70
8
62
4
0
3DFACE
8
Lay1
10
176.776695
20
733.578644
30
1016.421356
11
441.941738
21
546.078644
31
828.921356
12
441.941738
22
687.5
32
687.5
13
441.941738
23
687.5
33
687.5
70
8
62
4
0
3DFACE
8
Lay1
10
176.776695
20
875.0
30
875.0
11
-88.388348
21
1062.5
31
1062.5
12
-88.388348
22
921.078644
32
1203.921356
13
-88.388348
23
921.078644
33
1203.921356
70
8
62
4
0
3DFACE
8
Lay1
10
-88.388348
20
921.078644
30
1203.921356
11
176.776695
21
733.578644
31
1016.421356
12
176.776695
22
875.0
32
875.0
13
176.776695
23
875.0
33
875.0
70
8
62
4
0
3DFACE
8
Lay1
10
-88.388348
20
1062.5
30
1062.5
11
-353.553391
21
1250.0
31
1250.0
12
-353.553391
22
1108.578644
32
1391.421356
13
-353.553391
23
1108.578644
33
1391.421356
70
8
62
4
0
3DFACE
8
Lay1
10
-353.553391
20
1108.578644
30
1391.421356
11
-88.388348
21
921.078644
31
1203.921356
12
-88.388348
22
1062.5
32
1062.5
13
-88.388348
23
1062.5
33
1062.5
70
8
62
4
0
3DFACE
8
Lay1
10
-353.553391
20
1250.0
30
1250.0
11
-530.330086
21
1125.0
31
1125.0
12
-530.330086
22
983.578644
32
1266.421356
13
-530.330086
23
983.578644
33
1266.421356
70
8
62
4
0
3DFACE
8
Lay1
10
-530.330086
20
983.578644
30
1266.421356
11
-353.553391
21
1108.578644
31
1391.421356
12
-353.553391
22
1250.0
32
1250.0
13
-353.553391
23
1250.0
33
1250.0
70
8
62
4
0
3DFACE
8
Lay1
10
-530.330086
20
1125.0
30
1125.0
11
-707.106781
21
1000.0
31
1000.0
12
-707.106781
22
858.578644
32
1141.421356
13
-707.106781
23
858.578644
33
1141.421356
70
8
62
4
0
3DFACE
8
Lay1
10
-707.106781
20
858.578644
30
1141.421356
11
-530.330086
21
983.578644
31
1266.421356
12
-530.330086
22
1125.0
32
1125.0
13
-530.330086
23
1125.0
33
1125.0
70
8
62
4
0
3DFACE
8
Lay1
10
-707.106781
20
1000.0
30
1000.0
11
-883.883476
21
875.0
31
875.0
12
-883.883476
22
733.578644
32
1016.421356
13
-883.883476
23
733.578644
33
1016.421356
70
8
62
4
0
3DFACE
8
Lay1
10
-883.883476
20
733.578644
30
1016.421356
11
-707.106781
21
858.578644
31
1141.421356
12
-707.106781
22
1000.0
32
1000.0
13
-707.106781
23
1000.0
33
1000.0
70
8
62
4
0
3DFACE
8
Lay1
10
-883.883476
20
875.0
30
875.0
11
-1060.660172
21
750.0
31
750.0
12
-1060.660172
22
608.578644
32
891.421356
13
-1060.660172
23
608.578644
33
891.421356
70
8
62
4
0
3DFACE
8
Lay1
10
-1060.660172
20
608.578644
30
891.421356
11
-883.883476
21
733.578644
31
1016.421356
12
-883.883476
22
875.0
32
875.0
13
-883.883476
23
875.0
33
875.0
70
8
62
4
0
3DFACE
8
Lay1
10
707.106781
20
500.0
30
500.0
11
530.330086
21
375.0
31
375.0
12
265.165043
22
562.5
32
562.5
13
265.165043
23
562.5
33
562.5
70
8
62
4
0
3DFACE
8
Lay1
10
265.165043
20
562.5
30
562.5
11
441.941738
21
687.5
31
687.5
12
707.106781
22
500.0
32
500.0
13
707.106781
23
500.0
33
500.0
70
8
62
4
0
3DFACE
8
Lay1
10
530.330086
20
375.0
30
375.0
11
353.553391
21
250.0
31
250.0
12
88.388348
22
437.5
32
437.5
13
88.388348
23
437.5
33
437.5
70
8
62
4
0
3DFACE
8
Lay1
10
88.388348
20
437.5
30
437.5
11
265.165043
21
562.5
31
562.5
12
530.330086
22
375.0
32
375.0
13
530.330086
23
375.0
33
375.0
70
8
62
4
0
3DFACE
8
Lay1
10
441.941738
20
687.5
30
687.5
11
265.165043
21
562.5
31
562.5
12
0.0
22
750.0
32
750.0
13
0.0
23
750.0
33
750.0
70
8
62
4
0
3DFACE
8
Lay1
10
0.0
20
750.0
30
750.0
11
176.776695
21
875.0
31
875.0
12
441.941738
22
687.5
32
687.5
13
441.941738
23
687.5
33
687.5
70
8
62
4
0
3DFACE
8
Lay1
10
265.165043
20
562.5
30
562.5
11
88.388348
21
437.5
31
437.5
12
-176.776695
22
625.0
32
625.0
13
-176.776695
23
625.0
33
625.0
70
8
62
4
0
3DFACE
8
Lay1
10
-176.776695
20
625.0
30
625.0
11
0.0
21
750.0
31
750.0
12
265.165043
22
562.5
32
562.5
13
265.165043
23
562.5
33
562.5
70
8
62
4
0
3DFACE
8
Lay1
10
353.553391
20
250.0
30
250.0
11
176.776695
21
125.0
31
125.0
12
-88.388348
22
312.5
32
312.5
13
-88.388348
23
312.5
33
312.5
70
8
62
4
0
3DFACE
8
Lay1
10
-88.388348
20
312.5
30
312.5
11
88.388348
21
437.5
31
437.5
12
353.553391
22
250.0
32
250.0
13
353.553391
23
250.0
33
250.0
70
8
62
4
0
3DFACE
8
Lay1
10
176.776695
20
125.0
30
125.0
11
0.0
21
0.0
31
0.0
12
-265.165043
22
187.5
32
187.5
13
-265.165043
23
187.5
33
187.5
70
8
62
4
0
3DFACE
8
Lay1
10
-265.165043
20
187.5
30
187.5
11
-88.388348
21
312.5
31
312.5
12
176.776695
22
125.0
32
125.0
13
176.776695
23
125.0
33
125.0
70
8
62
4
0
3DFACE
8
Lay1
10
88.388348
20
437.5
30
437.5
11
-88.388348
21
312.5
31
312.5
12
-353.553391
22
500.0
32
500.0
13
-353.553391
23
500.0
33
500.0
70
8
62
4
0
3DFACE
8
Lay1
10
-353.553391
20
500.0
30
500.0
11
-176.776695
21
625.0
31
625.0
12
88.388348
22
437.5
32
437.5
13
88.388348
23
437.5
33
437.5
70
8
62
4
0
3DFACE
8
Lay1
10
-88.388348
20
312.5
30
312.5
11
-265.165043
21
187.5
31
187.5
12
-530.330086
22
375.0
32
375.0
13
-530.330086
23
375.0
33
375.0
70
8
62
4
0
3DFACE
8
Lay1
10
-530.330086
20
375.0
30
375.0
11
-353.553391
21
500.0
31
500.0
12
-88.388348
22
312.5
32
312.5
13
-88.388348
23
312.5
33
312.5
70
8
62
4
0
3DFACE
8
Lay1
10
176.776695
20
875.0
30
875.0
11
0.0
21
750.0
31
750.0
12
-265.165043
22
937.5
32
937.5
13
-265.165043
23
937.5
33
937.5
70
8
62
4
0
3DFACE
8
Lay1
10
-265.165043
20
937.5
30
937.5
11
-88.388348
21
1062.5
31
1062.5
12
176.776695
22
875.0
32
875.0
13
176.776695
23
875.0
33
875.0
70
8
62
4
0
3DFACE
8
Lay1
10
0.0
20
750.0
30
750.0
11
-176.776695
21
625.0
31
625.0
12
-441.941738
22
812.5
32
812.5
13
-441.941738
23
812.5
33
812.5
70
8
62
4
0
3DFACE
8
Lay1
10
-441.941738
20
812.5
30
812.5
11
-265.165043
21
937.5
31
937.5
12
0.0
22
750.0
32
750.0
13
0.0
23
750.0
33
750.0
70
8
62
4
0
3DFACE
8
Lay1
10
-88.388348
20
1062.5
30
1062.5
11
-265.165043
21
937.5
31
937.5
12
-530.330086
22
1125.0
32
1125.0
13
-530.330086
23
1125.0
33
1125.0
70
8
62
4
0
3DFACE
8
Lay1
10
-530.330086
20
1125.0
30
1125.0
11
-353.553391
21
1250.0
31
1250.0
12
-88.388348
22
1062.5
32
1062.5
13
-88.388348
23
1062.5
33
1062.5
70
8
62
4
0
3DFACE
8
Lay1
10
-265.165043
20
937.5
30
937.5
11
-441.941738
21
812.5
31
812.5
12
-707.106781
22
1000.0
32
1000.0
13
-707.106781
23
1000.0
33
1000.0
70
8
62
4
0
3DFACE
8
Lay1
10
-707.106781
20
1000.0
30
1000.0
11
-530.330086
21
1125.0
31
1125.0
12
-265.165043
22
937.5
32
937.5
13
-265.165043
23
937.5
33
937.5
70
8
62
4
0
3DFACE
8
Lay1
10
-176.776695
20
625.0
30
625.0
11
-353.553391
21
500.0
31
500.0
12
-618.718434
22
687.5
32
687.5
13
-618.718434
23
687.5
33
687.5
70
8
62
4
0
3DFACE
8
Lay1
10
-618.718434
20
687.5
30
687.5
11
-441.941738
21
812.5
31
812.5
12
-176.776695
22
625.0
32
625.0
13
-176.776695
23
625.0
33
625.0
70
8
62
4
0
3DFACE
8
Lay1
10
-353.553391
20
500.0
30
500.0
11
-530.330086
21
375.0
31
375.0
12
-795.495129
22
562.5
32
562.5
13
-795.495129
23
562.5
33
562.5
70
8
62
4
0
3DFACE
8
Lay1
10
-795.495129
20
562.5
30
562.5
11
-618.718434
21
687.5
31
687.5
12
-353.553391
22
500.0
32
500.0
13
-353.553391
23
500.0
33
500.0
70
8
62
4
0
3DFACE
8
Lay1
10
-441.941738
20
812.5
30
812.5
11
-618.718434
21
687.5
31
687.5
12
-883.883476
22
875.0
32
875.0
13
-883.883476
23
875.0
33
875.0
70
8
62
4
0
3DFACE
8
Lay1
10
-883.883476
20
875.0
30
875.0
11
-707.106781
21
1000.0
31
1000.0
12
-441.941738
22
812.5
32
812.5
13
-441.941738
23
812.5
33
812.5
70
8
62
4
0
3DFACE
8
Lay1
10
-618.718434
20
687.5
30
687.5
11
-795.495129
21
562.5
31
562.5
12
-1060.660172
22
750.0
32
750.0
13
-1060.660172
23
750.0
33
750.0
70
8
62
4
0
3DFACE
8
Lay1
10
-1060.660172
20
750.0
30
750.0
11
-883.883476
21
875.0
31
875.0
12
-618.718434
22
687.5
32
687.5
13
-618.718434
23
687.5
33
687.5
70
8
62
4
0
ENDSEC
0
EOF
